<svg width="160" height="28" viewBox="0 0 160 28" fill="none" xmlns="http://www.w3.org/2000/svg">
<path d="M3.56 7.4L6.72 16.32L7.26 18.42H7L7.54 16.32L10.7 7.4H13.94L8.94 21H5.16L0.16 7.4H3.56ZM15.907 18.46V16H22.367V18.46H15.907ZM22.727 21L19.567 12.08L19.047 10.1H19.287L18.747 12.08L15.587 21H12.367L17.327 7.4H21.167L26.147 21H22.727ZM27.5091 21V7.4H30.4691L30.7091 21H27.5091ZM36.3091 21L36.0691 7.4H39.2691V21H36.3091ZM35.8891 21L31.5891 13.86L28.4891 7.4H30.8891L35.1891 14.54L38.3091 21H35.8891ZM45.1883 21V7.4H48.4083V21H45.1883ZM40.9683 10.02V7.4H52.6283V10.02H40.9683ZM55.2625 18.46V16H61.7225V18.46H55.2625ZM62.0825 21L58.9225 12.08L58.4025 10.1H58.6425L58.1025 12.08L54.9425 21H51.7225L56.6825 7.4H60.5225L65.5025 21H62.0825ZM78.2038 11.76H74.8438C74.6571 11.0933 74.3238 10.5867 73.8438 10.24C73.3771 9.88 72.8104 9.7 72.1438 9.7C71.4638 9.7 70.8771 9.88667 70.3838 10.26C69.9038 10.62 69.5371 11.14 69.2838 11.82C69.0304 12.4867 68.9038 13.2867 68.9038 14.22C68.9038 15.1533 69.0371 15.9533 69.3038 16.62C69.5704 17.2867 69.9504 17.8 70.4438 18.16C70.9504 18.52 71.5504 18.7 72.2438 18.7C72.7371 18.7 73.1904 18.6067 73.6038 18.42C74.0171 18.2333 74.3571 17.9467 74.6238 17.56C74.8904 17.1733 75.0638 16.6733 75.1438 16.06H76.6438C76.6438 17.2467 76.4371 18.2333 76.0238 19.02C75.6238 19.7933 75.0704 20.3733 74.3638 20.76C73.6571 21.1333 72.8504 21.32 71.9438 21.32C70.6771 21.32 69.5704 21.0333 68.6238 20.46C67.6771 19.8867 66.9371 19.0733 66.4038 18.02C65.8838 16.9533 65.6238 15.6867 65.6238 14.22C65.6238 12.7533 65.8904 11.4867 66.4238 10.42C66.9571 9.34 67.7171 8.51333 68.7038 7.94C69.6904 7.36667 70.8638 7.08 72.2238 7.08C73.1971 7.08 74.0971 7.25333 74.9238 7.6C75.7638 7.94667 76.4704 8.46667 77.0438 9.16C77.6304 9.85333 78.0171 10.72 78.2038 11.76ZM78.2038 21H76.0238L75.1438 16.06H72.5438V13.64H78.2038V21ZM80.3997 21V7.4H83.5997V21H80.3997ZM82.7397 21V18.46H90.1597V21H82.7397ZM82.7397 9.94V7.4H90.1597V9.94H82.7397ZM82.7397 15.28V12.8H89.3797V15.28H82.7397ZM93.038 10.62C93.038 11.2467 93.158 11.7533 93.398 12.14C93.638 12.5133 93.958 12.8 94.358 13C94.7713 13.1867 95.2313 13.3267 95.738 13.42C96.258 13.5133 96.7913 13.6 97.338 13.68C97.8846 13.7467 98.4113 13.8467 98.918 13.98C99.4246 14.1 99.8846 14.2933 100.298 14.56C100.711 14.8133 101.038 15.1667 101.278 15.62C101.518 16.0733 101.638 16.6733 101.638 17.42C101.638 18.2333 101.431 18.92 101.018 19.48C100.618 20.04 100.071 20.4667 99.378 20.76C98.6846 21.04 97.8913 21.18 96.998 21.18C96.0646 21.18 95.238 21.0467 94.518 20.78C93.8113 20.5 93.2246 20.08 92.758 19.52C92.3046 18.96 91.998 18.2733 91.838 17.46H92.638C92.838 18.46 93.318 19.22 94.078 19.74C94.838 20.26 95.8113 20.52 96.998 20.52C98.2513 20.52 99.2046 20.24 99.858 19.68C100.511 19.12 100.838 18.3933 100.838 17.5C100.838 16.8333 100.718 16.3067 100.478 15.92C100.238 15.52 99.9113 15.22 99.498 15.02C99.098 14.8067 98.638 14.6467 98.118 14.54C97.6113 14.42 97.0846 14.3267 96.538 14.26C95.9913 14.18 95.4646 14.08 94.958 13.96C94.4513 13.84 93.9913 13.66 93.578 13.42C93.178 13.18 92.8513 12.8467 92.598 12.42C92.358 11.98 92.238 11.4 92.238 10.68C92.238 10.04 92.398 9.46 92.718 8.94C93.038 8.42 93.518 8.00667 94.158 7.7C94.798 7.38 95.5913 7.22 96.538 7.22C97.378 7.22 98.1313 7.35333 98.798 7.62C99.4646 7.88667 100.018 8.29333 100.458 8.84C100.898 9.38667 101.171 10.0933 101.278 10.96H100.478C100.291 9.89333 99.8513 9.11333 99.158 8.62C98.4646 8.12667 97.5913 7.88 96.538 7.88C95.4046 7.88 94.538 8.13333 93.938 8.64C93.338 9.14667 93.038 9.80667 93.038 10.62ZM114.479 15.8C114.479 16.9067 114.265 17.8667 113.839 18.68C113.425 19.48 112.839 20.1 112.079 20.54C111.319 20.9667 110.405 21.18 109.339 21.18C108.299 21.18 107.392 20.9667 106.619 20.54C105.845 20.1 105.252 19.48 104.839 18.68C104.425 17.88 104.219 16.9267 104.219 15.82V7.4H104.999V15.82C104.999 17.2867 105.385 18.4467 106.159 19.3C106.932 20.14 107.992 20.56 109.339 20.56C110.699 20.56 111.765 20.1333 112.539 19.28C113.312 18.4267 113.699 17.2667 113.699 15.8V7.4H114.479V15.8ZM117.953 21V7.4H118.733V21H117.953ZM122.113 15.62H118.453V14.98H122.093C123.293 14.98 124.247 14.6733 124.953 14.06C125.673 13.4333 126.033 12.5867 126.033 11.52C126.033 10.44 125.673 9.59333 124.953 8.98C124.247 8.35333 123.3 8.04 122.113 8.04H118.453V7.4H122.113C123.06 7.4 123.887 7.56667 124.593 7.9C125.3 8.23333 125.847 8.70667 126.233 9.32C126.62 9.93333 126.813 10.66 126.813 11.5C126.813 12.7933 126.387 13.8067 125.533 14.54C124.68 15.26 123.54 15.62 122.113 15.62ZM129.594 21V7.4H130.374V21H129.594ZM133.754 15.62H130.094V14.98H133.734C134.934 14.98 135.887 14.6733 136.594 14.06C137.314 13.4333 137.674 12.5867 137.674 11.52C137.674 10.44 137.314 9.59333 136.594 8.98C135.887 8.35333 134.941 8.04 133.754 8.04H130.094V7.4H133.754C134.701 7.4 135.527 7.56667 136.234 7.9C136.941 8.23333 137.487 8.70667 137.874 9.32C138.261 9.93333 138.454 10.66 138.454 11.5C138.454 12.7933 138.027 13.8067 137.174 14.54C136.321 15.26 135.181 15.62 133.754 15.62ZM141.235 21V7.4H142.015V21H141.235ZM141.735 21V20.36H149.535V21H141.735ZM153.391 21V15.74H154.171V21H153.391ZM149.251 7.4L153.171 13.88L153.851 15.12H153.771L154.451 13.88L158.391 7.4H159.211L154.171 15.74H153.391L148.371 7.4H149.251Z" fill="white"/>
</svg>
