<svg id="Layer_2" data-name="Layer 2" xmlns="http://www.w3.org/2000/svg" viewBox="0 0 160 160">
  <defs>
    <style>
      .cls-1 {
        fill: #fff;
      }
    </style>
  </defs>
  <rect width="160" height="160"/>
  <g>
    <g>
      <polygon class="cls-1" points="20.87 110.46 20.87 57.9 47.48 75.11 47.48 99.11 76.09 117.61 76.09 146.16 20.87 110.46"/>
      <path d="M21.87,59.74l24.61,15.91v24l.91.59,27.69,17.91v26.17l-53.22-34.41v-50.17M19.87,56.06v54.94l57.22,37v-30.94l-28.61-18.5v-24l-28.61-18.5h0Z"/>
    </g>
    <g>
      <polygon class="cls-1" points="83.91 117.61 112.52 99.11 112.52 75.11 139.13 57.9 139.13 110.46 83.91 146.16 83.91 117.61"/>
      <path d="M138.13,59.74v50.17l-53.22,34.41v-26.17l27.69-17.91.91-.59v-24l24.61-15.91M140.13,56.06l-28.61,18.5v24l-28.61,18.5v30.94l57.22-37v-54.94h0Z"/>
    </g>
    <g>
      <polygon class="cls-1" points="24.08 50.66 80 13.2 135.92 50.66 111.53 66.43 80 45.32 48.47 66.43 24.08 50.66"/>
      <path d="M80,14.41l54.1,36.24-22.57,14.59-30.43-20.38-1.11-.75-1.11.75-30.43,20.38-22.57-14.59L80,14.41M80,12L22.26,50.67l26.22,16.96h0l31.52-21.11,31.52,21.11,26.22-16.96L80,12h0Z"/>
    </g>
  </g>
</svg>